<?xml version="1.0" encoding="UTF-8"?>
<svg width="35px" height="35px" viewBox="0 0 35 35" version="1.1" xmlns="http://www.w3.org/2000/svg" xmlns:xlink="http://www.w3.org/1999/xlink">
    <!-- Generator: Sketch 47.1 (45422) - http://www.bohemiancoding.com/sketch -->
    <title>Shape</title>
    <desc>Created with Sketch.</desc>
    <defs></defs>
    <g id="Page-1" stroke="none" stroke-width="1" fill="none" fill-rule="evenodd">
        <g id="Desktop" transform="translate(-30.000000, -30.000000)" fill="#4D0082">
            <g id="Info" transform="translate(30.000000, 30.000000)">
                <g id="github-copy">
                    <g id="Icon">
                        <path d="M0.564516129,17.9296445 C0.564516129,25.6005754 5.41659282,32.109567 12.1462891,34.4057295 C12.9936091,34.5656294 13.3023871,34.0294318 13.3023871,33.5689201 C13.3023871,33.1563783 13.2878319,32.0647951 13.2795146,30.616102 C8.5688312,31.6650453 7.57491962,28.2879596 7.57491962,28.2879596 C6.80453419,26.2817489 5.69418109,25.7476833 5.69418109,25.7476833 C4.15652919,24.669958 5.81062262,24.692344 5.81062262,24.692344 C7.51046092,24.8149339 8.40456548,26.4821568 8.40456548,26.4821568 C9.91622597,29.135429 12.3687756,28.3689755 13.3335767,27.9244538 C13.4874459,26.8019566 13.9251413,26.0376351 14.4085815,25.6027074 C10.6481441,25.1645817 6.6943306,23.6753807 6.6943306,17.0214131 C6.6943306,15.1250004 7.35451246,13.5750374 8.43783448,12.3608642 C8.26421186,11.9216725 7.6830439,10.1563777 8.60417952,7.76640732 C8.60417952,7.76640732 10.0264296,7.29843363 13.2608008,9.54556013 C14.6123542,9.16073438 16.0605956,8.96778851 17.5005198,8.96139252 C18.9394044,8.96778851 20.3876458,9.16073438 21.7412785,9.54556013 C24.9735704,7.29843363 26.3937412,7.76640732 26.3937412,7.76640732 C27.3169561,10.1563777 26.7357881,11.9216725 26.5621655,12.3608642 C27.6475669,13.5750374 28.3025504,15.1250004 28.3025504,17.0214131 C28.3025504,23.6913707 24.3435386,25.1592517 20.5706253,25.5899154 C21.1788244,26.126113 21.7194457,27.1857163 21.7194457,28.8049693 C21.7194457,31.1267157 21.6996923,32.9996765 21.6996923,33.5689201 C21.6996923,34.0336958 22.0043116,34.5730914 22.8641075,34.4035975 C29.5875658,32.1031711 34.4354839,25.5995094 34.4354839,17.9296445 C34.4354839,8.33884893 26.8522297,0.564516129 17.4984405,0.564516129 C8.14777033,0.564516129 0.564516129,8.33884893 0.564516129,17.9296445 Z" id="Shape"></path>
                    </g>
                </g>
            </g>
        </g>
    </g>
</svg>