<?xml version="1.0" encoding="UTF-8"?>
<svg width="75px" height="36px" viewBox="0 0 75 36" version="1.1" xmlns="http://www.w3.org/2000/svg" xmlns:xlink="http://www.w3.org/1999/xlink">
    <!-- Generator: Sketch 47.1 (45422) - http://www.bohemiancoding.com/sketch -->
    <title>Dumbbell</title>
    <desc>Created with Sketch.</desc>
    <defs>
        <rect id="path-1" x="19" y="15" width="37" height="6" rx="2"></rect>
        <rect id="path-2" x="-15" y="15" width="36" height="6" rx="3"></rect>
        <rect id="path-3" x="-1.5" y="15" width="24" height="6" rx="3"></rect>
        <rect id="path-4" x="10.5" y="15" width="15" height="6" rx="3"></rect>
        <rect id="path-5" x="-15" y="15" width="36" height="6" rx="3"></rect>
        <rect id="path-6" x="-1.5" y="15" width="24" height="6" rx="3"></rect>
        <rect id="path-7" x="10.5" y="15" width="15" height="6" rx="3"></rect>
    </defs>
    <g id="Icons" stroke="none" stroke-width="1" fill="none" fill-rule="evenodd">
        <g id="DumbbellWhite" transform="translate(-13.000000, -32.000000)">
            <g id="Dumbbell" transform="translate(13.000000, 32.000000)">
                <g id="Bar">
                    <use fill="#FFFFFF" fill-rule="evenodd" xlink:href="#path-1"></use>
                    <rect stroke="#FFFFFF" stroke-width="2" x="20" y="16" width="35" height="4" rx="2"></rect>
                </g>
                <g id="WeightsRight" transform="translate(54.000000, 0.000000)">
                    <g id="WeightLarge" transform="translate(3.000000, 18.000000) rotate(90.000000) translate(-3.000000, -18.000000) ">
                        <use fill="#FFFFFF" fill-rule="evenodd" xlink:href="#path-2"></use>
                        <rect stroke="#FFFFFF" stroke-width="2" x="-14" y="16" width="34" height="4" rx="2"></rect>
                    </g>
                    <g id="WeightMedium" transform="translate(10.500000, 18.000000) rotate(90.000000) translate(-10.500000, -18.000000) ">
                        <use fill="#FFFFFF" fill-rule="evenodd" xlink:href="#path-3"></use>
                        <rect stroke="#FFFFFF" stroke-width="2" x="-0.5" y="16" width="22" height="4" rx="2"></rect>
                    </g>
                    <g id="WeightSmall" transform="translate(18.000000, 18.000000) rotate(90.000000) translate(-18.000000, -18.000000) ">
                        <use fill="#FFFFFF" fill-rule="evenodd" xlink:href="#path-4"></use>
                        <rect stroke="#FFFFFF" stroke-width="2" x="11.5" y="16" width="13" height="4" rx="2"></rect>
                    </g>
                </g>
                <g id="WeightsRight" transform="translate(10.500000, 18.000000) scale(-1, 1) translate(-10.500000, -18.000000) ">
                    <g id="WeightLarge" transform="translate(3.000000, 18.000000) rotate(90.000000) translate(-3.000000, -18.000000) ">
                        <use fill="#FFFFFF" fill-rule="evenodd" xlink:href="#path-5"></use>
                        <rect stroke="#FFFFFF" stroke-width="2" x="-14" y="16" width="34" height="4" rx="2"></rect>
                    </g>
                    <g id="WeightMedium" transform="translate(10.500000, 18.000000) rotate(90.000000) translate(-10.500000, -18.000000) ">
                        <use fill="#FFFFFF" fill-rule="evenodd" xlink:href="#path-6"></use>
                        <rect stroke="#FFFFFF" stroke-width="2" x="-0.5" y="16" width="22" height="4" rx="2"></rect>
                    </g>
                    <g id="WeightSmall" transform="translate(18.000000, 18.000000) rotate(90.000000) translate(-18.000000, -18.000000) ">
                        <use fill="#FFFFFF" fill-rule="evenodd" xlink:href="#path-7"></use>
                        <rect stroke="#FFFFFF" stroke-width="2" x="11.5" y="16" width="13" height="4" rx="2"></rect>
                    </g>
                </g>
            </g>
        </g>
    </g>
</svg>