<?xml version="1.0" encoding="UTF-8"?>
<svg width="65px" height="65px" viewBox="0 0 65 65" version="1.1" xmlns="http://www.w3.org/2000/svg" xmlns:xlink="http://www.w3.org/1999/xlink">
    <!-- Generator: Sketch 47.1 (45422) - http://www.bohemiancoding.com/sketch -->
    <title>Clock</title>
    <desc>Created with Sketch.</desc>
    <defs></defs>
    <g id="Icons" stroke="none" stroke-width="1" fill="none" fill-rule="evenodd">
        <g id="TimeColor" transform="translate(-18.000000, -18.000000)">
            <g id="Clock" transform="translate(18.000000, 18.000000)">
                <g id="ClockOutline" fill="#7303C0">
                    <path d="M32.5,65 C14.5507456,65 0,50.4492544 0,32.5 C0,14.5507456 14.5507456,0 32.5,0 C50.4492544,0 65,14.5507456 65,32.5 C65,50.4492544 50.4492544,65 32.5,65 Z M32.5,61 C48.2401154,61 61,48.2401154 61,32.5 C61,16.7598846 48.2401154,4 32.5,4 C16.7598846,4 4,16.7598846 4,32.5 C4,48.2401154 16.7598846,61 32.5,61 Z" id="Combined-Shape"></path>
                </g>
                <g id="ClockHands" transform="translate(30.000000, 20.000000)" stroke="#7303C0" stroke-width="3" stroke-linecap="round">
                    <path d="M0.5,13.5 L7.46010492,0.212526971" id="Line"></path>
                    <path d="M0.5,13.5 L15.6137817,26.5986108" id="Line"></path>
                </g>
            </g>
        </g>
    </g>
</svg>